<?xml version="1.0" standalone="no"?>
<!DOCTYPE svg PUBLIC "-//W3C//DTD SVG 20010904//EN"
 "http://www.w3.org/TR/2001/REC-SVG-20010904/DTD/svg10.dtd">
<svg version="1.0" xmlns="http://www.w3.org/2000/svg"
 width="1836.000000pt" height="1224.000000pt" viewBox="0 0 1836.000000 1224.000000"
 preserveAspectRatio="xMidYMid meet">

<g transform="translate(0.000000,1224.000000) scale(0.100000,-0.100000)"
fill="#000000" stroke="none">
<path d="M8260 8645 c-365 -57 -699 -217 -983 -470 l-98 -87 -79 76 c-85 83
-120 96 -160 56 -40 -40 -28 -75 60 -164 l80 -82 -56 -75 c-219 -291 -358
-639 -404 -1009 -5 -46 -10 -159 -10 -250 0 -257 29 -437 106 -670 238 -716
832 -1227 1552 -1335 126 -19 398 -19 524 0 350 52 670 198 945 429 l93 77
137 -140 c122 -125 142 -141 171 -141 41 0 72 30 72 70 0 25 -23 55 -139 177
l-139 146 55 65 c133 157 276 412 348 622 82 237 115 439 115 698 0 259 -28
439 -106 672 -238 716 -832 1227 -1552 1335 -120 18 -415 18 -532 0z m530
-151 c646 -98 1197 -578 1413 -1232 210 -633 88 -1327 -320 -1836 l-56 -68
-57 58 c-31 33 -141 145 -244 251 l-188 192 20 29 c38 53 110 206 141 297 56
169 66 240 66 465 0 160 -4 224 -18 290 -103 480 -411 835 -809 930 -113 27
-283 27 -396 0 -186 -45 -318 -123 -474 -280 l-106 -108 -236 243 c-130 134
-236 248 -236 254 0 19 182 171 295 246 359 240 777 334 1205 269z m-1337
-907 l230 -238 -37 -76 c-46 -93 -89 -220 -113 -333 -14 -66 -18 -130 -18
-290 0 -224 10 -297 66 -463 110 -332 350 -604 630 -716 109 -43 203 -61 329
-61 243 0 457 88 636 261 l71 70 234 -241 c129 -133 234 -245 234 -250 0 -16
-153 -139 -257 -207 -570 -374 -1303 -370 -1873 12 -271 181 -478 418 -626
715 -267 536 -270 1188 -9 1724 51 104 141 251 203 329 36 46 -1 75 300 -236z
m1273 132 c228 -57 440 -243 568 -497 87 -172 128 -358 128 -572 0 -223 -43
-406 -139 -592 l-46 -90 -112 114 c-398 402 -1245 1281 -1245 1293 0 21 147
172 214 220 198 140 407 181 632 124z m-400 -1031 c290 -299 593 -609 673
-690 l145 -148 -49 -51 c-62 -63 -150 -127 -234 -169 -194 -97 -448 -97 -642
0 -280 140 -483 435 -545 790 -33 187 -17 440 37 617 22 71 74 193 83 193 2 0
242 -244 532 -542z"/>
<path d="M13323 8583 l-322 -3 -20 -26 -21 -27 0 -1904 0 -1905 603 7 c646 7
769 15 976 61 533 120 1012 492 1265 984 108 211 168 397 202 630 25 173 15
480 -20 648 -172 810 -815 1413 -1625 1526 -114 16 -122 16 -1038 9z m1010
-148 c251 -33 508 -127 717 -262 207 -134 385 -309 522 -512 483 -721 377
-1696 -250 -2293 -250 -237 -526 -382 -877 -458 -89 -20 -145 -23 -510 -30
-225 -5 -503 -9 -617 -9 l-208 -1 0 1780 0 1780 168 1 c219 2 924 15 937 17 6
1 59 -5 118 -13z"/>
<path d="M13687 7832 c-16 -17 -17 -86 -17 -789 0 -764 0 -771 21 -797 15 -19
30 -26 54 -26 24 0 39 7 54 26 21 26 21 34 21 741 l0 714 288 -3 287 -3 82
-33 c116 -47 215 -115 309 -213 173 -181 268 -400 293 -671 46 -499 -227 -972
-638 -1107 -60 -20 -86 -21 -391 -21 -316 0 -328 -1 -354 -21 -19 -15 -26 -30
-26 -54 0 -24 7 -39 26 -54 26 -20 38 -21 343 -21 284 0 325 2 393 20 274 72
525 285 667 568 45 89 97 251 116 356 32 187 15 450 -42 630 -108 343 -364
625 -663 728 -129 44 -168 48 -494 48 -290 0 -314 -1 -329 -18z"/>
<path d="M11231 8554 l-21 -27 0 -1867 0 -1867 21 -27 c28 -36 80 -36 108 0
l21 27 0 1867 0 1867 -21 27 c-15 19 -30 26 -54 26 -24 0 -39 -7 -54 -26z"/>
<path d="M11931 8554 l-21 -27 0 -1867 0 -1867 21 -27 c28 -36 80 -36 108 0
l21 27 0 1867 0 1867 -21 27 c-15 19 -30 26 -54 26 -24 0 -39 -7 -54 -26z"/>
<path d="M3150 8550 c-11 -11 -20 -31 -20 -45 0 -25 40 -133 89 -239 16 -33
117 -279 224 -546 1040 -2580 1230 -3048 1247 -3064 24 -25 76 -25 100 0 17
16 207 484 1247 3064 107 267 208 513 224 546 49 106 89 214 89 239 0 60 -85
88 -128 42 -12 -13 -129 -289 -260 -613 -130 -324 -457 -1137 -727 -1807 -269
-669 -492 -1217 -495 -1217 -3 0 -225 548 -495 1217 -269 670 -597 1483 -727
1807 -131 324 -248 600 -260 613 -27 29 -80 31 -108 3z"/>
<path d="M3970 8550 c-11 -11 -20 -31 -20 -45 0 -32 703 -1791 726 -1816 24
-26 104 -26 128 0 23 25 726 1784 726 1816 0 60 -89 89 -127 42 -10 -13 -162
-384 -338 -825 -176 -441 -322 -802 -325 -802 -3 0 -149 361 -325 802 -176
441 -328 812 -338 825 -24 30 -79 31 -107 3z"/>
</g>
</svg>
