<?xml version="1.0" standalone="no"?>
<!DOCTYPE svg PUBLIC "-//W3C//DTD SVG 20010904//EN"
 "http://www.w3.org/TR/2001/REC-SVG-20010904/DTD/svg10.dtd">
<svg version="1.0" xmlns="http://www.w3.org/2000/svg"
 width="428.000000pt" height="478.000000pt" viewBox="0 0 428.000000 478.000000"
 preserveAspectRatio="xMidYMid meet">

<g transform="translate(0.000000,478.000000) scale(0.100000,-0.100000)"
fill="#000000" stroke="none">
<path d="M1870 4385 c-365 -57 -699 -217 -983 -470 l-98 -87 -79 76 c-85 83
-120 96 -160 56 -40 -40 -28 -75 60 -164 l80 -82 -56 -75 c-219 -291 -358
-639 -404 -1009 -13 -109 -13 -391 0 -500 18 -143 49 -279 96 -420 238 -716
832 -1227 1552 -1335 126 -19 398 -19 524 0 350 52 670 198 945 429 l93 77
137 -140 c122 -125 142 -141 170 -141 42 0 73 30 73 70 0 25 -23 55 -139 177
l-139 146 55 65 c133 157 276 412 348 622 82 237 115 439 115 698 0 259 -28
439 -106 672 -238 716 -832 1227 -1552 1335 -120 18 -415 18 -532 0z m530
-151 c646 -98 1197 -578 1413 -1232 210 -633 88 -1327 -320 -1836 l-56 -68
-57 58 c-31 33 -141 145 -244 251 l-188 192 20 29 c69 96 154 309 189 472 26
121 26 459 0 580 -103 480 -411 835 -809 930 -58 14 -118 20 -198 20 -263 0
-464 -90 -672 -300 l-106 -108 -236 243 c-130 134 -236 248 -236 254 0 19 182
171 295 246 359 240 777 334 1205 269z m-1337 -907 l230 -238 -37 -76 c-46
-93 -89 -220 -113 -333 -26 -121 -26 -459 0 -580 59 -277 182 -506 366 -683
188 -181 395 -267 641 -267 243 0 457 88 636 261 l71 70 234 -241 c129 -133
234 -245 234 -250 0 -16 -153 -139 -257 -207 -570 -374 -1303 -370 -1873 12
-271 181 -478 418 -626 715 -267 536 -270 1188 -9 1724 51 104 141 251 203
329 36 46 -1 75 300 -236z m1273 132 c228 -57 440 -243 568 -497 87 -172 128
-358 128 -572 0 -223 -43 -406 -139 -592 l-46 -90 -112 114 c-398 402 -1245
1281 -1245 1293 0 21 147 172 214 220 198 140 407 181 632 124z m-400 -1031
c290 -299 593 -609 673 -690 l145 -148 -49 -51 c-62 -63 -150 -127 -234 -169
-194 -97 -448 -97 -642 0 -280 140 -483 435 -545 790 -33 187 -17 440 37 617
22 71 74 193 83 193 2 0 242 -244 532 -542z"/>
</g>
</svg>
